<?xml version="1.0" standalone="no"?>
<!DOCTYPE svg PUBLIC "-//W3C//DTD SVG 20010904//EN"
 "http://www.w3.org/TR/2001/REC-SVG-20010904/DTD/svg10.dtd">
<svg version="1.0" xmlns="http://www.w3.org/2000/svg"
 width="512.000000pt" height="512.000000pt" viewBox="0 0 512.000000 512.000000"
 preserveAspectRatio="xMidYMid meet">
<metadata>
Created by potrace 1.14, written by Peter Selinger 2001-2017
</metadata>
<g transform="translate(0.000000,512.000000) scale(0.100000,-0.100000)"
fill="#000000" stroke="none">
<path d="M3738 3865 c-2 -2 -30 -5 -63 -9 -240 -25 -495 -139 -689 -308 -90
-78 -194 -191 -262 -283 -16 -22 -32 -42 -35 -45 -17 -14 -182 -266 -327 -500
-268 -432 -395 -606 -552 -758 -84 -82 -233 -167 -325 -186 -16 -4 -41 -9 -55
-12 -14 -3 -68 -7 -120 -8 -366 -11 -714 231 -830 575 -28 82 -29 88 -36 191
-28 386 243 787 586 868 125 30 288 7 437 -60 94 -43 245 -146 333 -229 l75
-69 65 63 c36 35 107 104 158 153 l94 89 -90 82 c-50 46 -123 108 -164 137
-40 30 -78 59 -85 64 -7 6 -15 10 -19 10 -4 0 -15 6 -23 14 -42 38 -267 137
-376 165 -79 20 -188 33 -276 33 -360 -1 -699 -192 -919 -517 -102 -152 -192
-364 -214 -505 -3 -19 -8 -46 -12 -60 -13 -52 -12 -296 1 -375 21 -120 23
-130 54 -213 39 -108 68 -166 119 -247 181 -285 484 -498 827 -580 119 -29
352 -39 455 -21 290 52 490 160 703 380 170 177 353 439 690 990 112 183 237
348 351 462 172 172 358 261 562 268 244 8 482 -97 669 -295 154 -164 235
-346 235 -529 0 -207 -102 -458 -256 -629 -98 -109 -259 -217 -369 -246 -16
-5 -32 -9 -35 -10 -117 -33 -282 -24 -425 22 -125 40 -277 127 -415 238 l-66
52 -49 -57 c-28 -31 -92 -105 -144 -164 l-94 -108 25 -22 c94 -88 307 -227
448 -294 74 -35 230 -88 285 -96 21 -4 41 -8 45 -11 10 -6 162 -19 225 -19
234 0 487 84 675 223 19 14 44 33 55 41 37 28 191 185 225 230 19 25 37 47 40
50 6 6 13 17 72 115 86 143 151 323 182 498 20 119 15 330 -12 434 -77 301
-272 581 -532 764 -172 122 -340 194 -544 235 -57 11 -270 26 -278 19z"/>
</g>
</svg>
